<svg width="102" height="78" viewBox="0 0 102 78" fill="none" xmlns="http://www.w3.org/2000/svg">
<path d="M11.262 60.5025C11.3036 60.4167 11.3809 60.1526 11.4939 59.7101C11.6069 59.2676 11.6248 58.7647 11.5478 58.2014C11.4923 57.7953 11.3787 57.4772 11.2071 57.2471C11.0355 57.017 10.7971 56.8594 10.4919 56.7744C10.1866 56.6893 9.79836 56.6557 9.32703 56.6734C8.85569 56.6912 8.28597 56.7458 7.61786 56.8371L0.52406 57.8073L0 53.9755L7.0938 53.0053C8.15492 52.8602 9.1263 52.7907 10.0079 52.7969C10.8896 52.8031 11.6708 52.9532 12.3516 53.2471C13.0323 53.541 13.5917 54.045 14.0297 54.7591C14.4676 55.4733 14.7735 56.4657 14.9473 57.7364C15.0297 58.339 15.0329 58.8991 14.9569 59.4166C14.8809 59.9341 14.7274 60.4222 14.4966 60.8808L11.262 60.5025ZM15.0412 43.4587C14.8198 44.5066 14.4217 45.4158 13.8467 46.1863C13.2718 46.9567 12.5863 47.5789 11.7902 48.0526C10.9942 48.5264 10.1441 48.84 9.24 48.9937C8.3359 49.1473 7.43753 49.1298 6.54489 48.9412C5.62639 48.7472 4.79005 48.3881 4.03589 47.8639C3.28173 47.3397 2.64426 46.6949 2.1235 45.9295C1.60274 45.164 1.24564 44.3115 1.05221 43.372C0.85878 42.4324 0.870013 41.4517 1.08591 40.4297C1.30727 39.3818 1.70541 38.4726 2.28035 37.7021C2.85529 36.9317 3.54334 36.3135 4.34449 35.8476C5.14564 35.3816 5.99827 35.0719 6.90238 34.9183C7.80649 34.7646 8.69839 34.7807 9.57808 34.9666C10.4837 35.1579 11.3142 35.5124 12.0697 36.0301C12.8253 36.5478 13.4634 37.1894 13.9842 37.9549C14.5049 38.7203 14.8659 39.5702 15.0672 40.5047C15.2685 41.4391 15.2598 42.4238 15.0412 43.4587ZM7.39536 45.1072C7.86108 45.2056 8.3243 45.2359 8.78501 45.1981C9.24571 45.1603 9.67481 45.0482 10.0723 44.8619C10.4698 44.6756 10.8104 44.4063 11.0943 44.0541C11.3782 43.7019 11.5775 43.2541 11.6923 42.7108C11.8071 42.1674 11.8033 41.6734 11.6811 41.2286C11.5588 40.7838 11.3464 40.3978 11.0439 40.0703C10.7415 39.7429 10.3865 39.472 9.97911 39.2575C9.5717 39.0431 9.14159 38.888 8.68881 38.7924C8.22308 38.694 7.7631 38.6644 7.30886 38.7036C6.85462 38.7428 6.42876 38.8555 6.03128 39.0418C5.6338 39.2281 5.29568 39.5013 5.01691 39.8614C4.73814 40.2214 4.54274 40.6666 4.43069 41.1971C4.31591 41.7404 4.32034 42.2312 4.44397 42.6695C4.56761 43.1078 4.77351 43.4925 5.06168 43.8237C5.34984 44.1548 5.69763 44.4276 6.10505 44.6421C6.51247 44.8565 6.94257 45.0116 7.39536 45.1072ZM13.1274 16.4405L24.583 24.6296L22.3338 27.7759L17.8484 24.5694L15.1033 28.4095L19.5887 31.6159L17.3396 34.7622L5.88397 26.573L8.13312 23.4268L12.3604 26.4487L15.1055 22.6086L10.8782 19.5867L13.1274 16.4405ZM21.8036 9.31503L25.4569 7.00263L36.7755 16.5038L33.4574 18.6041L31.2623 16.7308L28.095 18.7356L28.8656 21.5105L25.5306 23.6214L21.8036 9.31503ZM29.3639 14.881L25.6562 11.3597L27.202 16.2494L29.3639 14.881ZM40.6767 8.57657L41.8978 15.3898L38.091 16.0721L35.6068 2.21132L38.5742 1.67948L45.4011 7.72983L44.138 0.682295L47.9448 0L50.4291 13.8608L47.4031 14.4031L40.6767 8.57657ZM63.6561 9.37255L61.2381 15.8583L57.6143 14.5073L62.5334 1.31275L65.3581 2.36586L68.1534 11.0492L70.6545 4.34042L74.2784 5.69144L69.3593 18.886L66.4788 17.8121L63.6561 9.37255ZM83.4249 12.2317L86.6067 15.1592L80.3706 28.5568L77.4807 25.8979L78.7198 23.2917L75.9613 20.7536L73.4816 22.2183L70.5772 19.5459L83.4249 12.2317ZM80.0131 20.978L82.4509 16.4832L78.1303 19.2456L80.0131 20.978ZM80.7003 29.9431L92.642 22.4807L94.6916 25.7604L82.7498 33.2229L80.7003 29.9431ZM86.6932 33.8432L96.0734 37.6078L94.2608 31.795L97.4796 30.7913L100.68 41.0536L97.9342 41.9097L88.6722 38.5238L90.4907 44.3555L87.2719 45.3592L83.9478 34.6993L86.6932 33.8432ZM87.0764 53.4847C87.1544 52.3636 87.4061 51.4135 87.8314 50.6346C88.2568 49.8557 88.8103 49.2348 89.4919 48.772C90.1736 48.3092 90.9415 47.9882 91.7956 47.809C92.6497 47.6299 93.5384 47.5725 94.4617 47.6367L101.683 48.1394L101.415 51.9975L94.1932 51.4949C93.7316 51.4628 93.2865 51.4782 92.858 51.5411C92.4294 51.6041 92.0434 51.723 91.6999 51.8979C91.3564 52.0728 91.0782 52.3086 90.8653 52.6053C90.6525 52.9019 90.5305 53.2745 90.4993 53.723C90.4671 54.1846 90.5357 54.5804 90.7049 54.9103C90.8741 55.2402 91.1203 55.5124 91.4433 55.7271C91.7664 55.9418 92.1357 56.11 92.5514 56.2317C92.967 56.3534 93.3991 56.4298 93.8476 56.4611L101.069 56.9637L100.801 60.8219L93.579 60.3192C92.603 60.2513 91.7018 60.0593 90.8755 59.7434C90.0492 59.4274 89.3374 58.9902 88.7401 58.4317C88.1428 57.8732 87.6971 57.1828 87.4031 56.3604C87.1091 55.5381 87.0002 54.5795 87.0764 53.4847Z" fill="white"/>
<mask id="mask0_295_275" style="mask-type:luminance" maskUnits="userSpaceOnUse" x="25" y="24" width="51" height="54">
<path d="M25.4822 24.4824H75.9379V77.4342H25.4822V24.4824Z" fill="white"/>
</mask>
<g mask="url(#mask0_295_275)">
<mask id="mask1_295_275" style="mask-type:luminance" maskUnits="userSpaceOnUse" x="25" y="24" width="51" height="54">
<path d="M25.4828 24.4854H75.9385V77.4371H25.4828V24.4854Z" fill="white"/>
</mask>
<g mask="url(#mask1_295_275)">
<path d="M27.0538 59.1476C27.0535 59.5813 26.7018 59.9328 26.268 59.9328C26.0597 59.9328 25.86 59.8501 25.7128 59.7028C25.5655 59.5556 25.4828 59.3558 25.4828 59.1476V42.7761C25.4828 42.3424 25.8342 41.9906 26.268 41.9903C26.4764 41.9903 26.6763 42.0731 26.8237 42.2205C26.971 42.3678 27.0538 42.5677 27.0538 42.7761V59.1476ZM31.4979 35.1169C31.4976 34.6831 31.1459 34.3317 30.7121 34.3317C30.5039 34.3317 30.3041 34.4144 30.1569 34.5617C30.0096 34.7089 29.9269 34.9086 29.9269 35.1169V66.8049C29.9269 67.0132 30.0096 67.2129 30.1569 67.3602C30.3041 67.5074 30.5039 67.5902 30.7121 67.5902C31.1459 67.5902 31.4976 67.2387 31.4979 66.8049V35.1169ZM35.9421 30.7408C35.9417 30.3071 35.59 29.9556 35.1562 29.9556C34.948 29.9556 34.7483 30.0383 34.601 30.1856C34.4537 30.3328 34.371 30.5326 34.371 30.7408V71.181C34.371 71.6148 34.7225 71.9665 35.1562 71.9669C35.3646 71.9669 35.5645 71.8841 35.7119 71.7367C35.8593 71.5893 35.9421 71.3894 35.9421 71.181V30.7408ZM40.3856 27.8965C40.3856 27.4627 40.0341 27.111 39.6003 27.1106C39.1666 27.111 38.8151 27.4627 38.8151 27.8965V74.0229C38.8151 74.2311 38.8979 74.4309 39.0451 74.5781C39.1924 74.7254 39.3921 74.8081 39.6003 74.8081C39.8086 74.8081 40.0083 74.7254 40.1556 74.5781C40.3028 74.4309 40.3856 74.2311 40.3856 74.0229V27.8965ZM44.8297 26.3647C44.8297 25.931 44.4782 25.5792 44.0445 25.5789C43.6107 25.5792 43.2593 25.931 43.2593 26.3647V75.5577C43.2593 75.766 43.342 75.9657 43.4892 76.113C43.6365 76.2602 43.8362 76.3429 44.0445 76.3429C44.2527 76.3429 44.4524 76.2602 44.5997 76.113C44.7469 75.9657 44.8297 75.766 44.8297 75.5577V26.3647ZM49.2738 25.2706C49.2738 25.0623 49.1911 24.8626 49.0438 24.7153C48.8966 24.5681 48.6968 24.4854 48.4886 24.4854C48.2803 24.4854 48.0806 24.5681 47.9334 24.7153C47.7861 24.8626 47.7034 25.0623 47.7034 25.2706V76.6513C47.7034 77.085 48.0548 77.4368 48.4886 77.4371C48.9223 77.4368 49.2738 77.085 49.2738 76.6513V25.2706ZM53.7179 25.2706C53.7179 25.0623 53.6352 24.8626 53.4879 24.7153C53.3407 24.5681 53.1409 24.4854 52.9327 24.4854C52.7244 24.4854 52.5247 24.5681 52.3775 24.7153C52.2302 24.8626 52.1475 25.0623 52.1475 25.2706V76.6513C52.1475 77.085 52.4989 77.4368 52.9327 77.4371C53.3665 77.4368 53.7179 77.085 53.7179 76.6513V25.2706ZM58.162 26.3647C58.162 25.931 57.8106 25.5792 57.3768 25.5789C56.9431 25.5792 56.5916 25.931 56.5916 26.3647V75.5577C56.5916 75.766 56.6743 75.9657 56.8216 76.113C56.9688 76.2602 57.1686 76.3429 57.3768 76.3429C57.5851 76.3429 57.7848 76.2602 57.932 76.113C58.0793 75.9657 58.162 75.766 58.162 75.5577V26.3647ZM62.6061 27.8965C62.6061 27.4627 62.2547 27.111 61.8209 27.1106C61.3872 27.111 61.0357 27.4627 61.0357 27.8965V74.0229C61.0357 74.2311 61.1184 74.4309 61.2657 74.5781C61.413 74.7254 61.6127 74.8081 61.8209 74.8081C62.0292 74.8081 62.2289 74.7254 62.3762 74.5781C62.5234 74.4309 62.6061 74.2311 62.6061 74.0229V27.8965ZM67.0503 30.7408C67.0503 30.5326 66.9675 30.3328 66.8203 30.1856C66.673 30.0383 66.4733 29.9556 66.265 29.9556C65.8313 29.9556 65.4796 30.3071 65.4792 30.7408V71.181C65.4792 71.3894 65.562 71.5893 65.7094 71.7367C65.8567 71.8841 66.0566 71.9669 66.265 71.9669C66.6988 71.9665 67.0503 71.6148 67.0503 71.181V30.7408ZM71.4944 35.1169C71.4944 34.9086 71.4116 34.7089 71.2644 34.5617C71.1171 34.4144 70.9174 34.3317 70.7092 34.3317C70.2754 34.3317 69.9237 34.6831 69.9233 35.1169V66.8049C69.9237 67.2387 70.2754 67.5902 70.7092 67.5902C70.9174 67.5902 71.1171 67.5074 71.2644 67.3602C71.4116 67.2129 71.4944 67.0132 71.4944 66.8049V35.1169ZM75.9385 42.7755C75.9385 42.3417 75.587 41.99 75.1533 41.9897C74.9449 41.9897 74.745 42.0725 74.5976 42.2198C74.4502 42.3672 74.3674 42.5671 74.3674 42.7755V59.147C74.3678 59.5807 74.7195 59.9322 75.1533 59.9322C75.3615 59.9322 75.5612 59.8494 75.7085 59.7022C75.8558 59.5549 75.9385 59.3552 75.9385 59.147V42.7755Z" fill="white"/>
</g>
</g>
</svg>
